<svg version="1" xmlns="http://www.w3.org/2000/svg" width="400" height="400" viewBox="0 0 300.000000 300.000000"><path d="M191.8 48.6c-.2.1-2.3.5-4.7.9-4.9.7-14.7 5.2-19.6 8.9-9.3 7.1-16.1 17.2-19 28.1-1.6 6.3-2.2 19.8-.9 22.9.7 1.8.3 1.9-6.2 1.3-8.5-.8-13-1.5-16.9-2.7-1.6-.5-4.1-1.1-5.5-1.4-6-1.2-7.7-1.7-17.9-5.9C81.9 92.9 67 82.9 51.4 67.3l-9.3-9.4-1.4 2.8c-4.8 9.4-6.5 23.7-4.1 33.9 2.2 9.6 6.8 18 13.8 25l6.5 6.5-4.4-.5c-2.3-.3-7.3-1.7-11-3l-6.6-2.6.4 5.8c.5 5.7 3 14.1 5.8 19.4 4.9 9.4 18.8 21.1 28.2 23.8 2.6.7 4.7 1.6 4.7 1.9 0 1.3-13.1 2-17.8 1-3-.7-3.2-.5-2.6 1.4 1.6 5.5 7.2 14.3 12.2 19.2 5.7 5.6 16 11.7 22.2 13.1 1.9.4 4.2.9 5 1.1.8.2 2.8.4 4.3.5 3.7.2 2.5 1.3-8.1 7.7-16.1 9.6-33 14.1-52.4 13.8-6.4-.1-11.4.1-11 .5.4.3 4.4 2.6 8.8 5.1 9.6 5.2 21.5 9.9 32.3 12.7 8 2 9.9 2.4 21.1 3.9 7.2.9 29 .7 36-.3 27.8-4.4 48-12.7 69.5-28.6 6.4-4.7 23.8-23.7 29-31.5 7.9-11.9 8-12 11.6-19.5 10-20.9 14.7-39.7 15.4-62.4.3-9 .6-10 2.7-11.4C259 92.5 276.7 73 274.1 73c-.5 0-2.2.5-3.8 1.2-3.4 1.3-3 1.2-12.2 3.8-4.1 1.1-8 2-8.7 2-.8 0 1.8-3.1 5.6-6.9 6-6.1 13-16.8 13-20.1 0-.5-2.6.4-5.7 2.1-5.9 3.2-22.1 8.9-25.3 8.9-1 0-2.5-.6-3.2-1.3-6.8-6.5-16.6-11.7-25.2-13.3-3.4-.6-16.4-1.3-16.8-.8z"/></svg>